<!--?xml version="1.0" standalone="no"?-->
              <svg id="sw-js-blob-svg" viewBox="0 0 100 100" xmlns="http://www.w3.org/2000/svg" version="1.1">
                    <defs> 
                        <linearGradient id="sw-gradient" x1="0" x2="1" y1="1" y2="0">
                            <stop id="stop1" stop-color="rgba(249, 244, 218, 1)" offset="0%"></stop>
                            <stop id="stop2" stop-color="rgba(249, 244, 218, 1)" offset="100%"></stop>
                        </linearGradient>
                    </defs>
                <path fill="url(#sw-gradient)" d="M20.6,-31.1C25,-25.1,25.8,-16.9,27.6,-9.4C29.4,-2,32.3,4.7,30.5,9.8C28.7,14.8,22.2,18.3,16.4,21.6C10.5,25,5.3,28.3,-0.8,29.4C-6.9,30.6,-13.8,29.5,-19.3,26.1C-24.9,22.6,-29,16.7,-31.7,9.9C-34.3,3.2,-35.5,-4.4,-33.9,-11.5C-32.3,-18.7,-27.9,-25.5,-21.7,-30.9C-15.6,-36.4,-7.8,-40.5,0.1,-40.7C8.1,-40.9,16.1,-37.1,20.6,-31.1Z" width="100%" height="100%" transform="translate(50 50)" stroke-width="0" style="transition: all 0.3s ease 0s;" stroke="url(#sw-gradient)"></path>
              </svg>