<svg id="Layer_1" data-name="Layer 1" xmlns="http://www.w3.org/2000/svg" viewBox="0 0 729.43 657.8"><defs><style>.cls-1{fill:#fddb00;}.cls-2{fill:#7323dc;}</style></defs><path class="cls-1" d="M881.63,296.88c-6-29.87-38.83-59.61-72-64.94a1755.11,1755.11,0,0,0-539.36,0c-33.12,5.33-66,35.07-71.95,64.94a1291.75,1291.75,0,0,0,0,486.24c6,29.87,38.83,59.61,71.95,64.94a1755.11,1755.11,0,0,0,539.36,0c33.12-5.33,66-35.07,72-64.94A1291.75,1291.75,0,0,0,881.63,296.88Zm-341.7,447A204.22,204.22,0,0,1,336.17,540c0-112.34,91.43-203.9,203.76-203.9,112.48,0,203.9,91.56,203.9,203.9a203.48,203.48,0,0,1-18.7,85.33C692.79,695.33,621.88,743.9,539.93,743.9Z" transform="translate(-175.29 -211.1)"/><path class="cls-2" d="M774.61,743.9h-129A229.87,229.87,0,0,0,748.77,636.24c1.56-3.51,3.12-7,4.55-10.52C801.11,631.43,831.76,694.29,774.61,743.9Z" transform="translate(-175.29 -211.1)"/><path class="cls-2" d="M743.83,540a203.48,203.48,0,0,1-18.7,85.33c-32.34,70-103.25,118.57-185.2,118.57A204.22,204.22,0,0,1,336.17,540c0-112.34,91.43-203.9,203.76-203.9C652.41,336.1,743.83,427.66,743.83,540Z" transform="translate(-175.29 -211.1)"/><path class="cls-2" d="M743.83,540a203.48,203.48,0,0,1-18.7,85.33c-32.34,70-103.25,118.57-185.2,118.57A204.22,204.22,0,0,1,336.17,540c0-112.34,91.43-203.9,203.76-203.9C652.41,336.1,743.83,427.66,743.83,540Z" transform="translate(-175.29 -211.1)"/><path class="cls-1" d="M539.94,454.67a85.33,85.33,0,1,1,0,170.66h-.52a85.33,85.33,0,0,1,.52-170.66ZM612.4,540a72.4,72.4,0,1,0-72.46,72.34A72.46,72.46,0,0,0,612.4,540Z" transform="translate(-175.29 -211.1)"/><path class="cls-1" d="M539.94,467.66A72.34,72.34,0,1,1,467.6,540,72.46,72.46,0,0,1,539.94,467.66Z" transform="translate(-175.29 -211.1)"/><path class="cls-2" d="M539.94,625.33a59,59,0,1,1-.52,0Z" transform="translate(-175.29 -211.1)"/><path class="cls-2" d="M434.22,743.9H305.39c-57.15-49.61-26.5-112.6,21.42-118.18,1.43,3.5,3,7,4.55,10.52A229.94,229.94,0,0,0,434.22,743.9Z" transform="translate(-175.29 -211.1)"/></svg>